<?xml version="1.0" encoding="UTF-8"?>
<!-- Generated by Pixelmator Pro 3.7.1 -->
<svg width="1024" height="1024" viewBox="0 0 1024 1024" xmlns="http://www.w3.org/2000/svg">
    <path id="Rounded-Rectangle-copy-2" fill="#ffffff" fill-rule="evenodd" stroke="none" d="M 570.161682 802.54364 C 546.735718 793.668335 527.998291 771.337891 490.523376 726.677124 L 289.992615 487.693848 C 252.517746 443.03302 233.780273 420.702576 229.107712 396.09137 C 225.805389 378.697571 227.377396 360.729248 233.649963 344.173096 C 242.525269 320.747192 264.855682 302.009766 309.51651 264.534851 L 346.794006 233.255371 C 391.454834 195.780457 413.785248 177.04303 438.396454 172.370422 C 455.790283 169.068115 473.758575 170.640137 490.314728 176.912659 C 513.740723 185.787964 532.478149 208.118408 569.953003 252.779236 L 770.483765 491.762451 C 807.958618 536.423279 826.696106 558.753662 831.368652 583.364929 C 834.670959 600.758789 833.098938 618.727051 826.826416 635.283203 C 817.951111 658.709106 795.620728 677.446533 750.959839 714.921448 L 713.682373 746.200989 C 669.021545 783.675903 646.691101 802.41333 622.079895 807.085876 C 604.686035 810.388245 586.717773 808.816223 570.161682 802.54364 Z M 343.559753 266.866821 C 353.713562 258.346802 368.851685 259.671204 377.371735 269.825012 C 385.891785 279.978821 384.567352 295.116943 374.413574 303.636963 C 364.259766 312.157043 349.121643 310.832581 340.601593 300.678833 C 332.081543 290.525024 333.405975 275.386902 343.559753 266.866821 Z"/>
</svg>
