<?xml version="1.0" encoding="UTF-8"?>
<!-- Generated by Pixelmator Pro 3.7.1 -->
<svg width="1024" height="1024" viewBox="0 0 1024 1024" xmlns="http://www.w3.org/2000/svg">
    <linearGradient id="linearGradient1" x1="526.48138" y1="900.435259" x2="526.48138" y2="117.54359" gradientUnits="userSpaceOnUse" gradientTransform="matrix(0.766044 -0.642788 0.642788 0.766044 -190.739022 455.405162)">
        <stop offset="0" stop-color="#d7eae7" stop-opacity="1"/>
        <stop offset="1" stop-color="#ffffff" stop-opacity="1"/>
    </linearGradient>
    <path id="Rounded-Rectangle-copy-2" fill="url(#linearGradient1)" fill-rule="evenodd" stroke="none" d="M 581.251282 825.281067 C 569.53833 820.843445 560.169617 809.678223 541.432129 787.347778 L 239.083832 427.023132 C 220.34639 404.692688 210.977676 393.527527 208.641373 381.221863 C 206.990219 372.524963 207.776215 363.540833 210.912521 355.262756 C 215.350174 343.549805 226.515381 334.181091 248.845795 315.443665 L 407.464783 182.346619 C 429.795197 163.609192 440.960419 154.240417 453.266022 151.904114 C 461.962921 150.25293 470.947052 151.03894 479.225128 154.175232 C 490.93808 158.612915 500.306824 169.778137 519.04425 192.108521 L 821.392517 552.433228 C 840.129944 574.763611 849.498657 585.928833 851.834961 598.234375 C 853.486145 606.931335 852.700134 615.915466 849.563843 624.193542 C 845.126221 635.906494 833.960999 645.275208 811.630554 664.012695 L 653.011658 797.109741 C 630.681213 815.847168 619.516052 825.215942 607.210388 827.552246 C 598.513489 829.203369 589.529358 828.417358 581.251282 825.281067 Z M 343.559753 266.866821 C 353.713562 258.346802 368.851685 259.671204 377.371735 269.825012 C 385.891785 279.978821 384.567352 295.116943 374.413574 303.636963 C 364.259766 312.157043 349.121643 310.832581 340.601593 300.678833 C 332.081543 290.525024 333.405975 275.386902 343.559753 266.866821 Z"/>
</svg>
