<?xml version="1.0" encoding="UTF-8"?>
<!-- Generated by Pixelmator Pro 3.7.1 -->
<svg width="1024" height="1024" viewBox="0 0 1024 1024" xmlns="http://www.w3.org/2000/svg">
    <linearGradient id="linearGradient1" x1="330.340032" y1="723.888668" x2="330.257994" y2="191.812903" gradientUnits="userSpaceOnUse" gradientTransform="matrix(0.642788 -0.766044 0.766044 0.642788 -135.034102 593.80029)">
        <stop offset="0" stop-color="#0495a0" stop-opacity="1"/>
        <stop offset="1" stop-color="#05b6be" stop-opacity="1"/>
    </linearGradient>
    <path id="Rounded-Rectangle-copy-1" fill="url(#linearGradient1)" fill-rule="evenodd" stroke="none" d="M 662.824158 742.821411 C 638.212891 738.148804 615.882507 719.411377 571.22168 681.936523 L 332.238434 481.405762 C 287.577606 443.930847 265.247162 425.193359 256.371887 401.767456 C 250.099319 385.211304 248.527283 367.243042 251.829605 349.849182 C 256.502228 325.237976 275.239655 302.907593 312.714539 258.246765 L 343.99408 220.969238 C 381.468964 176.308411 400.20639 153.978027 423.632324 145.102722 C 440.188477 138.830139 458.156738 137.258118 475.550598 140.560425 C 500.161835 145.233032 522.492249 163.970459 567.153076 201.445374 L 806.136292 401.976135 C 850.797119 439.450989 873.127563 458.188416 882.002869 481.61438 C 888.275391 498.170532 889.847412 516.138794 886.545105 533.532654 C 881.872498 558.14386 863.135071 580.474243 825.660156 625.135132 L 794.380676 662.412598 C 756.905762 707.073425 738.168335 729.403809 714.742371 738.279175 C 698.186218 744.551697 680.217957 746.123718 662.824158 742.821411 Z M 346.645538 254.631714 C 355.165588 244.477966 370.303711 243.153564 380.45752 251.673584 C 390.611298 260.193604 391.93573 275.331726 383.41568 285.485535 C 374.89563 295.639343 359.757507 296.963745 349.603699 288.443726 C 339.449921 279.923645 338.125488 264.785522 346.645538 254.631714 Z"/>
</svg>
