<?xml version="1.0" encoding="UTF-8"?>
<!-- Generated by Pixelmator Pro 3.7.1 -->
<svg width="1024" height="1024" viewBox="0 0 1024 1024" xmlns="http://www.w3.org/2000/svg">
    <path id="Rounded-Rectangle-copy-3" fill="#ffffff" fill-rule="evenodd" stroke="none" d="M 458.27887 841.769409 C 436.75 828.96106 422.174866 803.716187 393.024567 753.22644 L 237.039337 483.052063 C 207.889053 432.562256 193.313889 407.317383 192.985992 382.268677 C 192.754257 364.565613 197.422546 347.143311 206.474747 331.927917 C 219.283096 310.399048 244.527985 295.823914 295.017761 266.673645 L 337.160553 242.342468 C 387.65036 213.1922 412.895233 198.617065 437.943939 198.289124 C 455.646942 198.057373 473.069275 202.725708 488.284668 211.777893 C 509.813568 224.586243 524.388733 249.831116 553.539001 300.320923 L 709.524231 570.495239 C 738.6745 620.984985 753.249634 646.229919 753.577576 671.278625 C 753.809265 688.981689 749.140991 706.403931 740.088806 721.619385 C 727.280457 743.148193 702.035583 757.723389 651.545776 786.873657 L 609.403015 811.204834 C 558.913208 840.355103 533.668335 854.930237 508.619598 855.258179 C 490.916595 855.489868 473.494263 850.821594 458.27887 841.769409 Z M 328.138885 274.881714 C 339.617889 268.254333 354.296082 272.187317 360.923492 283.666321 C 367.550903 295.145386 363.617889 309.823547 352.138885 316.450928 C 340.659851 323.078369 325.981689 319.145386 319.354279 307.666321 C 312.726837 296.187317 316.659851 281.509155 328.138885 274.881714 Z"/>
</svg>
