<?xml version="1.0" encoding="UTF-8"?>
<!-- Generated by Pixelmator Pro 3.7.1 -->
<svg width="1024" height="1024" viewBox="0 0 1024 1024" xmlns="http://www.w3.org/2000/svg">
    <linearGradient id="linearGradient1" x1="469.524966" y1="937.48075" x2="469.524966" y2="154.589081" gradientUnits="userSpaceOnUse" gradientTransform="matrix(0.866025 -0.5 0.5 0.866025 -199.97909 307.215174)">
        <stop offset="0" stop-color="#d7eae7" stop-opacity="1"/>
        <stop offset="1" stop-color="#ffffff" stop-opacity="1"/>
    </linearGradient>
    <filter id="filter1" x="0" y="0" width="1024" height="1024" filterUnits="userSpaceOnUse" primitiveUnits="userSpaceOnUse" color-interpolation-filters="sRGB">
        <feGaussianBlur stdDeviation="5"/>
        <feOffset dx="-0" dy="2" result="offsetblur"/>
        <feFlood flood-color="#000000" flood-opacity="0.5"/>
        <feComposite in2="offsetblur" operator="in"/>
        <feMerge>
            <feMergeNode/>
            <feMergeNode in="SourceGraphic"/>
        </feMerge>
    </filter>
    <path id="Rounded-Rectangle-copy-3" fill="url(#linearGradient1)" fill-rule="evenodd" stroke="none" filter="url(#filter1)" d="M 465.251709 866.087097 C 454.487274 859.682922 447.199707 847.060486 432.624573 821.815613 L 197.439316 414.46283 C 182.864182 389.217957 175.576614 376.59552 175.412659 364.071106 C 175.296783 355.219604 177.63092 346.508423 182.157043 338.900757 C 188.561218 328.136353 201.18367 320.848755 226.428558 306.273621 L 405.749817 202.742554 C 430.99469 188.167419 443.617157 180.879822 456.14151 180.71582 C 464.993011 180.599976 473.704163 182.934082 481.311859 187.460205 C 492.076294 193.86438 499.363861 206.486816 513.939026 231.731689 L 749.124207 639.084473 C 763.699341 664.329346 770.986877 676.951782 771.150879 689.476135 C 771.266724 698.327637 768.932617 707.038818 764.406494 714.646484 C 758.002319 725.41095 745.379883 732.698486 720.13501 747.273682 L 540.813782 850.80481 C 515.568909 865.379944 502.946442 872.667542 490.422089 872.831482 C 481.570587 872.947388 472.859436 870.61322 465.251709 866.087097 Z M 328.138885 274.881714 C 339.617889 268.254333 354.296082 272.187317 360.923492 283.666321 C 367.550903 295.145386 363.617889 309.823547 352.138885 316.450928 C 340.659851 323.078369 325.981689 319.145386 319.354279 307.666321 C 312.726837 296.187317 316.659851 281.509155 328.138885 274.881714 Z"/>
</svg>
