<?xml version="1.0" encoding="UTF-8"?>
<!-- Generated by Pixelmator Pro 3.7.1 -->
<svg width="1024" height="1024" viewBox="0 0 1024 1024" xmlns="http://www.w3.org/2000/svg">
    <linearGradient id="linearGradient1" x1="330.340032" y1="723.888668" x2="330.257994" y2="191.812903" gradientUnits="userSpaceOnUse" gradientTransform="matrix(0.642788 -0.766044 0.766044 0.642788 -135.034102 593.80029)">
        <stop offset="0" stop-color="#0495a0" stop-opacity="1"/>
        <stop offset="1" stop-color="#05b6be" stop-opacity="1"/>
    </linearGradient>
    <path id="Rounded-Rectangle-copy-1" fill="url(#linearGradient1)" fill-rule="evenodd" stroke="none" d="M 677.693604 763.28772 C 665.388 760.951416 654.222778 751.582703 631.892395 732.845215 L 271.567688 430.496948 C 249.237274 411.759521 238.072067 402.390808 233.634415 390.677795 C 230.498138 382.399719 229.712112 373.415588 231.363297 364.718689 C 233.6996 352.413086 243.068329 341.247864 261.805756 318.91748 L 394.902924 160.298584 C 413.64035 137.96814 423.009094 126.802917 434.722046 122.365295 C 443.000092 119.229004 451.984222 118.442993 460.681152 120.094116 C 472.986755 122.430481 484.151978 131.799194 506.482361 150.536621 L 866.807007 452.884888 C 889.137451 471.622375 900.302612 480.991089 904.740295 492.704041 C 907.876587 500.982117 908.662598 509.966248 907.011414 518.663208 C 904.67511 530.96875 895.306396 542.133972 876.56897 564.464355 L 743.471863 723.083313 C 724.734436 745.413696 715.365723 756.578979 703.652771 761.016602 C 695.374695 764.152832 686.390564 764.938843 677.693604 763.28772 Z M 346.645538 254.631714 C 355.165588 244.477966 370.303711 243.153564 380.45752 251.673584 C 390.611298 260.193604 391.93573 275.331726 383.41568 285.485535 C 374.89563 295.639343 359.757507 296.963745 349.603699 288.443726 C 339.449921 279.923645 338.125488 264.785522 346.645538 254.631714 Z"/>
</svg>
