<?xml version="1.0" encoding="UTF-8"?>
<!-- Generated by Pixelmator Pro 3.7.1 -->
<svg width="1024" height="1024" viewBox="0 0 1024 1024" xmlns="http://www.w3.org/2000/svg">
    <linearGradient id="linearGradient1" x1="426.559991" y1="964.533118" x2="426.559991" y2="181.64145" gradientUnits="userSpaceOnUse" gradientTransform="matrix(0.939693 -0.34202 0.34202 0.939693 -163.468376 180.576809)">
        <stop offset="0" stop-color="#d7eae7" stop-opacity="1"/>
        <stop offset="1" stop-color="#ffffff" stop-opacity="1"/>
    </linearGradient>
    <filter id="filter1" x="0" y="0" width="1024" height="1024" filterUnits="userSpaceOnUse" primitiveUnits="userSpaceOnUse" color-interpolation-filters="sRGB">
        <feGaussianBlur stdDeviation="5"/>
        <feOffset dx="-0" dy="2" result="offsetblur"/>
        <feFlood flood-color="#000000" flood-opacity="0.5"/>
        <feComposite in2="offsetblur" operator="in"/>
        <feMerge>
            <feMergeNode/>
            <feMergeNode in="SourceGraphic"/>
        </feMerge>
    </filter>
    <path id="Rounded-Rectangle-copy-4" fill="url(#linearGradient1)" fill-rule="evenodd" stroke="none" filter="url(#filter1)" d="M 363.487579 886.590149 C 353.998749 878.414063 349.013763 864.717896 339.043762 837.325562 L 178.167587 395.321899 C 168.197601 367.929626 163.212616 354.233459 165.225983 341.87085 C 166.648911 333.133728 170.460281 324.960205 176.238693 318.254089 C 184.414795 308.765259 198.110947 303.780273 225.503265 293.810303 L 420.078217 222.990845 C 447.47052 213.020874 461.166687 208.035889 473.529236 210.049255 C 482.266388 211.472168 490.43988 215.283508 497.146057 221.06189 C 506.634888 229.238037 511.619873 242.934204 521.589844 270.326477 L 682.466003 712.330078 C 692.435974 739.722412 697.420959 753.418579 695.407593 765.781128 C 693.98468 774.518311 690.173279 782.691772 684.394897 789.397949 C 676.218811 798.88678 662.522644 803.871765 635.13031 813.841736 L 440.55542 884.661255 C 413.163116 894.631226 399.466949 899.616211 387.104401 897.602844 C 378.367249 896.179932 370.193756 892.36853 363.487579 886.590149 Z M 331.119507 280.557129 C 343.574982 276.023682 357.347198 282.445801 361.880615 294.901245 C 366.414063 307.356689 359.991943 321.128906 347.536499 325.662354 C 335.081024 330.19574 321.308807 323.773682 316.775391 311.318176 C 312.241974 298.862732 318.664063 285.090515 331.119507 280.557129 Z"/>
</svg>
