<?xml version="1.0" encoding="UTF-8"?>
<!-- Generated by Pixelmator Pro 3.7.1 -->
<svg width="1024" height="1024" viewBox="0 0 1024 1024" xmlns="http://www.w3.org/2000/svg">
    <linearGradient id="linearGradient1" x1="426.559991" y1="964.533118" x2="426.559991" y2="181.64145" gradientUnits="userSpaceOnUse" gradientTransform="matrix(0.939693 -0.34202 0.34202 0.939693 -163.468376 180.576809)">
        <stop offset="0" stop-color="#d7eae7" stop-opacity="1"/>
        <stop offset="1" stop-color="#ffffff" stop-opacity="1"/>
    </linearGradient>
    <filter id="filter1" x="0" y="0" width="1024" height="1024" filterUnits="userSpaceOnUse" primitiveUnits="userSpaceOnUse" color-interpolation-filters="sRGB">
        <feGaussianBlur stdDeviation="5"/>
        <feOffset dx="-0" dy="2" result="offsetblur"/>
        <feFlood flood-color="#000000" flood-opacity="0.5"/>
        <feComposite in2="offsetblur" operator="in"/>
        <feMerge>
            <feMergeNode/>
            <feMergeNode in="SourceGraphic"/>
        </feMerge>
    </filter>
    <path id="Rounded-Rectangle-copy-4" fill="url(#linearGradient1)" fill-rule="evenodd" stroke="none" filter="url(#filter1)" d="M 360.843384 861.43103 C 341.865723 845.078857 331.895752 817.686523 311.95578 762.901917 L 205.255585 469.745605 C 185.315628 414.960999 175.345627 387.568604 179.372375 362.843567 C 182.218246 345.369202 189.840973 329.022217 201.397781 315.609863 C 217.749985 296.632263 245.142288 286.662231 299.92691 266.72229 L 345.65451 250.078796 C 400.439423 230.138733 427.831573 220.168823 452.556549 224.195557 C 470.030884 227.041443 486.377869 234.664185 499.790222 246.221008 C 518.767883 262.573181 528.737854 289.965515 548.677856 344.750122 L 655.377991 637.906494 C 675.317993 692.69104 685.287964 720.083374 681.26123 744.808472 C 678.415344 762.282837 670.792603 778.629761 659.235779 792.042114 C 642.883606 811.019775 615.491333 820.989746 560.706665 840.929749 L 514.979065 857.573242 C 460.194458 877.513184 432.802155 887.483215 408.077026 883.456482 C 390.602722 880.610596 374.255737 872.987854 360.843384 861.43103 Z M 331.119507 280.557129 C 343.574982 276.023682 357.347198 282.445801 361.880615 294.901245 C 366.414063 307.356689 359.991943 321.128906 347.536499 325.662354 C 335.081024 330.19574 321.308807 323.773682 316.775391 311.318176 C 312.241974 298.862732 318.664063 285.090515 331.119507 280.557129 Z"/>
</svg>
